<?xml version="1.0" standalone="no"?>
<!DOCTYPE svg PUBLIC "-//W3C//DTD SVG 20010904//EN"
 "http://www.w3.org/TR/2001/REC-SVG-20010904/DTD/svg10.dtd">
<svg version="1.0" xmlns="http://www.w3.org/2000/svg"
 width="260.000000pt" height="280.000000pt" viewBox="0 0 260.000000 280.000000"
 preserveAspectRatio="xMidYMid meet">
<metadata>
Created by potrace 1.10, written by Peter Selinger 2001-2011
</metadata>
<g transform="translate(0.000000,280.000000) scale(0.050000,-0.050000)"
fill="#000000" stroke="none">
<path d="M2280 4389 c-752 -161 -1254 -982 -1061 -1737 263 -1026 1512 -1377
2296 -645 794 744 468 2109 -567 2374 -183 46 -472 50 -668 8z m631 -189 c485
-124 921 -636 929 -1090 0 -13 -127 -20 -341 -20 l-341 0 -11 50 c-116 496
-818 573 -1046 115 -34 -67 -61 -131 -61 -143 0 -15 -109 -22 -340 -23 -394
-1 -369 -21 -299 231 183 659 852 1048 1510 880z m-95 -885 c236 -156 210
-531 -46 -655 -270 -131 -570 73 -546 370 24 293 346 448 592 285z m-762 -455
c37 -157 158 -299 316 -373 308 -144 697 43 776 373 l12 50 341 0 c387 0 359
17 310 -190 -293 -1248 -2092 -1269 -2409 -28 -62 239 -90 218 301 218 l341 0
12 -50z"/>
<path d="M1896 3792 c-30 -36 -67 -100 -82 -143 -16 -44 -44 -113 -62 -154
-18 -41 -24 -75 -14 -75 11 0 26 20 33 45 8 25 35 89 61 143 26 53 42 105 36
115 -6 9 0 17 13 17 23 0 97 78 98 105 2 31 -31 10 -83 -53z"/>
<path d="M2495 3160 c-120 -94 -123 -236 -8 -315 141 -97 313 -12 313 153 0
163 -182 259 -305 162z m233 -49 c104 -113 27 -272 -132 -270 -88 0 -135 40
-149 125 -27 166 168 266 281 145z"/>
<path d="M1699 2700 c-10 -166 84 -371 254 -551 114 -121 152 -136 62 -25
-128 158 -185 262 -254 458 -38 107 -60 150 -62 118z"/>
</g>
</svg>
